# xmcd CD database file
#
# Track frame offsets:
#	150
#	17696
#	31769
#	47861
#	67793
#	88678
#	107014
#	125517
#	144689
#	161443
#	176489
#	198627
#	219747
#	239626
#	255124
#	269190
#	289156
#	303264
#
# Disc length: 4297 seconds
#
# Revision: 0
# Processed by: cddbd v1.5.2PL0 Copyright (c) Steve Scherf et al.
# Submitted via: CDex 1.70beta2
#
DISCID=0610c712
DTITLE=Carlos Vives - Fruta fresca
DYEAR=2000
DGENRE=Salsa
TTITLE0=Fruta fresca
TTITLE1=Pa' maite
TTITLE2=Gota fria
TTITLE3=La tierra del olvido
TTITLE4=19 de noviembre
TTITLE5=Tu amor eterno
TTITLE6=La Mona
TTITLE7=Volver al valle
TTITLE8=El cante
TTITLE9=La cartera
TTITLE10=Pitán, Pitán
TTITLE11=La receta
TTITLE12=La piragua
TTITLE13=El amor de mi tierra
TTITLE14=La hamaca grande
TTITLE15=Amor sensible
TTITLE16=El cantor de Fonseca
TTITLE17=La celosa
EXTD=YEAR: 2000
EXTT0=
EXTT1=
EXTT2=
EXTT3=
EXTT4=
EXTT5=
EXTT6=
EXTT7=
EXTT8=
EXTT9=
EXTT10=
EXTT11=
EXTT12=
EXTT13=
EXTT14=
EXTT15=
EXTT16=
EXTT17=
PLAYORDER=
